<svg xmlns="http://www.w3.org/2000/svg" width="1200" height="700" viewBox="0 0 1200 700"><rect width="1200" height="700" fill="#080a0f"/><g font-family="Arial" fill="#f2f4f7"><text x="50" y="55" font-size="30" font-weight="700">CareBridge × MemoryShield Threat Model</text><text x="50" y="85" font-size="15" fill="#7f8998">Three incidents • untrusted inputs • policy enforcement • audit</text><g stroke="#242a35" fill="#0e1118"><rect x="60" y="130" width="250" height="90" rx="8"/><rect x="60" y="300" width="250" height="90" rx="8"/><rect x="60" y="470" width="250" height="90" rx="8"/><rect x="430" y="230" width="300" height="260" rx="8"/><rect x="830" y="140" width="290" height="110" rx="8"/><rect x="830" y="300" width="290" height="110" rx="8"/><rect x="830" y="460" width="290" height="110" rx="8"/></g><g font-size="17"><text x="85" y="165">1. Malicious PDF</text><text x="85" y="192" fill="#7f8998">Hidden instruction + records</text><text x="85" y="335">2. Deepfake CFO</text><text x="85" y="362" fill="#7f8998">€480k urgent transfer</text><text x="85" y="505">3. Public API key</text><text x="85" y="532" fill="#7f8998">Billing credential exposure</text><text x="465" y="275">MEMORYSHIELD</text><text x="465" y="315" fill="#b7ff3c">Least privilege</text><text x="465" y="350" fill="#b7ff3c">Data-loss guard</text><text x="465" y="385" fill="#ffc857">Human approval</text><text x="465" y="420" fill="#b7ff3c">Audit trail</text><text x="465" y="455" fill="#ff4d5e">Quarantine / kill switch</text><text x="855" y="175">Patient Helper</text><text x="855" y="205" fill="#7f8998">records + email</text><text x="855" y="335">Billing Agent</text><text x="855" y="365" fill="#7f8998">invoices + payment gateway</text><text x="855" y="495">Credential Manager</text><text x="855" y="525" fill="#7f8998">scoped + short-lived + rotated</text></g><g stroke="#b7ff3c" stroke-width="3" fill="none"><path d="M310 175H430"/><path d="M310 345H430"/><path d="M310 515H430"/><path d="M730 275H830"/><path d="M730 355H830"/><path d="M730 455H830"/></g></g></svg>